Coordinates
version=1
nRows=19
nColumns=24
inDegrees=yes

Units are S.I. units (second, meters, Newtons, ...)
Angles are in degrees.

endheader
time	pelvis_tilt	pelvis_list	pelvis_rotation	pelvis_tx	pelvis_ty	pelvis_tz	hip_flexion_r	hip_adduction_r	hip_rotation_r	knee_angle_r	ankle_angle_r	subtalar_angle_r	mtp_angle_r	hip_flexion_l	hip_adduction_l	hip_rotation_l	knee_angle_l	ankle_angle_l	subtalar_angle_l	mtp_angle_l	lumbar_extension	lumbar_bending	lumbar_rotation
      0.55000000	     -1.06985551	      2.78023906	     -0.66884121	     -0.81391173	      1.05240054	      0.32572301	     22.31331224	      0.35447347	     -9.56670566	     -0.29977068	      2.26638746	     -1.85315960	     -0.15940228	    -13.36043903	      7.06645304	     -2.97739582	     -6.36718783	     11.35364077	      3.34523470	      0.15513081	      5.65740024	     -0.54802486	     -2.69900163
      0.55416667	     -1.10582251	      2.82384012	     -0.81186350	     -0.80847482	      1.05189796	      0.32611559	     22.30787779	      0.45480944	     -9.29349563	     -0.43901133	      2.15730550	     -1.63321819	     -0.18317071	    -13.42354343	      7.12146472	     -3.14539673	     -6.78187330	     11.23334920	      3.30750106	      0.11294353	      5.58539766	     -0.68015454	     -2.91493601
      0.55833333	     -1.11655370	      2.82000333	     -0.83995644	     -0.80283449	      1.05152361	      0.32628912	     22.24829801	      0.55044707	     -9.23571294	     -0.63649126	      2.15502480	     -1.61836259	     -0.18925662	    -13.52898352	      7.10388584	     -3.11708487	     -7.19913935	     11.19705165	      3.30239790	      0.10292617	      5.66129109	     -0.65183570	     -2.95427576
      0.56250000	     -1.13386001	      2.79842201	     -0.86052727	     -0.79711793	      1.05117977	      0.32645514	     22.18843597	      0.65805014	     -9.14402288	     -0.87597871	      2.13849558	     -1.59608989	     -0.19381942	    -13.61250788	      7.06179271	     -3.10232584	     -7.65152499	     11.15735310	      3.29534790	      0.09496651	      5.71559592	     -0.61680518	     -2.98956025
      0.56666667	     -1.14442471	      2.77568913	     -0.88700387	     -0.79135856	      1.05085836	      0.32661200	     22.12298529	      0.76221425	     -9.02306444	     -1.16303595	      2.10523108	     -1.57518458	     -0.19811316	    -13.69038733	      7.01864901	     -3.10496931	     -8.13620990	     11.10444660	      3.29410154	      0.08743302	      5.76679362	     -0.57113087	     -3.02821859
      0.57083333	     -1.15187245	      2.75267294	     -0.92309310	     -0.78558883	      1.05057093	      0.32677168	     22.05572989	      0.86326394	     -8.86388674	     -1.48633107	      2.04510895	     -1.55879130	     -0.20256621	    -13.74934853	      6.97519475	     -3.13713563	     -8.66130274	     11.03308079	      3.30372412	      0.07998879	      5.81192905	     -0.51556596	     -3.07304891
      0.57500000	     -1.18694958	      2.71407212	     -1.07748030	     -0.77971661	      1.05021681	      0.32716673	     22.01750915	      1.03217772	     -8.46089479	     -1.83311266	      1.83232386	     -1.61654128	     -0.21906799	    -13.76309606	      6.92675563	     -3.45990545	     -9.19627159	     10.83385273	      3.42320163	      0.05829584	      5.79310878	     -0.44520084	     -3.22091490
      0.57916667	     -1.15678812	      2.68779904	     -1.08909168	     -0.77390548	      1.05005715	      0.32725185	     21.90362213	      1.11138080	     -8.31634641	     -2.20831928	      1.75960014	     -1.64478629	     -0.22189189	    -13.83223416	      6.87187319	     -3.42947994	     -9.78533945	     10.77190159	      3.45252825	      0.05591186	      5.88375162	     -0.40721555	     -3.23402533
      0.58333333	     -1.15215534	      2.65552247	     -1.31187640	     -0.76803715	      1.04979206	      0.32788179	     21.81283160	      1.30506248	     -7.67530146	     -2.55282123	      1.24988960	     -2.18695998	     -0.25011780	    -13.84707664	      6.82166136	     -3.88866712	    -10.38912517	     10.49176848	      3.87929006	      0.04755497	      5.95458430	     -0.40839825	     -3.35527472
      0.58750000	     -1.14463549	      2.60776299	     -1.26188392	     -0.76214855	      1.04971580	      0.32792241	     21.69183549	      1.37839733	     -7.51232667	     -2.91449797	      1.17506502	     -2.20779595	     -0.25145763	    -13.84027858	      6.71522366	     -3.86956280	    -11.08391126	     10.43403230	      3.88568474	      0.04870691	      5.98757380	     -0.32949970	     -3.36094971
      0.59166667	     -1.15769428	      2.56397093	     -1.46088254	     -0.75622695	      1.04951632	      0.32853945	     21.61025615	      1.56538553	     -6.92408136	     -3.26443329	      0.51703084	     -2.79511107	     -0.27041312	    -13.78832720	      6.63297997	     -4.35465411	    -11.78754360	     10.09113778	      4.33366389	      0.07377956	      6.00053273	     -0.24511179	     -3.41453133
      0.59583333	     -1.12884225	      2.50752125	     -1.40714222	     -0.75030567	      1.04954803	      0.32857812	     21.45432838	      1.63439722	     -6.74218495	     -3.63039936	      0.43199179	     -2.81535203	     -0.27062316	    -13.76044598	      6.50640105	     -4.35296703	    -12.56160140	     10.01761102	      4.34108611	      0.07857477	      6.04937998	     -0.17628851	     -3.41383989
      0.60000000	     -1.14550421	      2.41139104	     -1.59182892	     -0.74424683	      1.04944714	      0.32956210	     21.28683584	      1.91187777	     -5.71054788	     -3.83130439	     -0.36014023	     -4.28846743	     -0.28885960	    -13.65144710	      6.30164643	     -5.01995578	    -13.39320827	      9.78945927	      5.18264981	      0.23362643	      6.06788742	     -0.08586541	     -3.37048269
      0.60416667	     -1.09416804	      2.36377668	     -1.58018885	     -0.73837053	      1.04956445	      0.32962302	     21.12937866	      1.96764774	     -5.57255551	     -4.23539135	     -0.49954457	     -4.25418033	     -0.28848043	    -13.59484473	      6.18884270	     -5.07126175	    -14.25056450	      9.64188273	      5.18257659	      0.24196484	      6.10776569	     -0.00236044	     -3.37537019
      0.60833333	     -1.08560056	      2.25021066	     -1.74467743	     -0.73218645	      1.04959975	      0.33027689	     20.97312896	      2.19795295	     -5.03679234	     -4.52859985	     -1.29360880	     -4.67145129	     -0.29033650	    -13.48862425	      5.98496166	     -5.61971550	    -15.09790533	      8.96150322	      5.64760700	      0.36529178	      6.15412824	      0.06120986	     -3.37517969
      0.61250000	     -1.02493653	      2.20965605	     -1.74175342	     -0.72633156	      1.04979814	      0.33033981	     20.81727230	      2.23552672	     -4.91238057	     -4.96291505	     -1.41170759	     -4.68933531	     -0.28956189	    -13.38262940	      5.87036355	     -5.69718350	    -16.05878429	      8.81460139	      5.65716548	      0.37832504	      6.15897691	      0.18788207	     -3.38775531
      0.61666667	     -1.03670198	      2.07508365	     -1.91192056	     -0.72010006	      1.04987284	      0.33116775	     20.66853037	      2.49809277	     -4.29757392	     -5.24309919	     -2.23268578	     -5.39039562	     -0.28867786	    -13.19713946	      5.60669575	     -6.33696058	    -17.00991788	      7.97964787	      6.26146765	      0.55283911	      6.18733695	      0.26525235	     -3.39119349
      0.62083333	     -1.03460259	      2.00555673	     -1.93330582	     -0.71415227	      1.05004185	      0.33142365	     20.57554287	      2.58531701	     -4.17548521	     -5.69042057	     -2.41964873	     -5.54546687	     -0.28718341	    -12.96567045	      5.42570760	     -6.58599143	    -18.08168133	      7.70844655	      6.34169932	      0.60300028	      6.04343011	      0.42785178	     -3.41377552
      0.62500000	     -0.96780306	      1.91696244	     -2.11009826	     -0.70813969	      1.05026844	      0.33201946	     20.40837397	      2.75519250	     -3.79586345	     -6.10540516	     -2.97350611	     -6.02676697	     -0.28576522	    -12.80308340	      5.23330000	     -7.05536461	    -19.11354270	      6.85057901	      6.80010898	      0.74637169	      6.10414366	      0.55221273	     -3.42417072
